<mxfile host="app.diagrams.net" modified="2024-04-04T10:06:20.146Z" agent="Mozilla/5.0 (Windows NT 10.0; Win64; x64) AppleWebKit/537.36 (KHTML, like Gecko) Chrome/108.0.0.0 YaBrowser/23.1.3.949 Yowser/2.5 Safari/537.36" etag="DYkli8iHQGIqrwOgKrOj" version="24.2.2" type="device">
  <diagram name="Страница — 1" id="T6KAc7fpX0pXLOmg80nU">
    <mxGraphModel dx="1434" dy="791" grid="1" gridSize="10" guides="1" tooltips="1" connect="1" arrows="1" fold="1" page="1" pageScale="1" pageWidth="827" pageHeight="1169" math="0" shadow="0">
      <root>
        <mxCell id="0" />
        <mxCell id="1" parent="0" />
        <mxCell id="ibpT-h3zPALlDqyW-gSG-1" value="Руководитель" style="shape=umlActor;verticalLabelPosition=bottom;verticalAlign=top;html=1;" vertex="1" parent="1">
          <mxGeometry x="140" y="70" width="30" height="60" as="geometry" />
        </mxCell>
        <mxCell id="ibpT-h3zPALlDqyW-gSG-2" value="" style="endArrow=none;dashed=1;html=1;rounded=0;" edge="1" parent="1">
          <mxGeometry width="50" height="50" relative="1" as="geometry">
            <mxPoint x="155" y="550" as="sourcePoint" />
            <mxPoint x="154.71" y="160" as="targetPoint" />
          </mxGeometry>
        </mxCell>
        <mxCell id="ibpT-h3zPALlDqyW-gSG-3" value="Клиентская часть&lt;br&gt;системы" style="html=1;whiteSpace=wrap;" vertex="1" parent="1">
          <mxGeometry x="280" y="90" width="110" height="50" as="geometry" />
        </mxCell>
        <mxCell id="ibpT-h3zPALlDqyW-gSG-4" value="" style="endArrow=none;dashed=1;html=1;rounded=0;entryX=0.5;entryY=1;entryDx=0;entryDy=0;" edge="1" parent="1" target="ibpT-h3zPALlDqyW-gSG-3">
          <mxGeometry width="50" height="50" relative="1" as="geometry">
            <mxPoint x="335" y="510" as="sourcePoint" />
            <mxPoint x="384.65999999999997" y="150" as="targetPoint" />
            <Array as="points">
              <mxPoint x="335" y="170" />
            </Array>
          </mxGeometry>
        </mxCell>
        <mxCell id="ibpT-h3zPALlDqyW-gSG-5" value="" style="endArrow=none;dashed=1;html=1;rounded=0;" edge="1" parent="1" target="ibpT-h3zPALlDqyW-gSG-6">
          <mxGeometry width="50" height="50" relative="1" as="geometry">
            <mxPoint x="155" y="300" as="sourcePoint" />
            <mxPoint x="154.71" y="160" as="targetPoint" />
          </mxGeometry>
        </mxCell>
        <mxCell id="ibpT-h3zPALlDqyW-gSG-6" value="" style="html=1;points=[[0,0,0,0,5],[0,1,0,0,-5],[1,0,0,0,5],[1,1,0,0,-5]];perimeter=orthogonalPerimeter;outlineConnect=0;targetShapes=umlLifeline;portConstraint=eastwest;newEdgeStyle={&quot;curved&quot;:0,&quot;rounded&quot;:0};" vertex="1" parent="1">
          <mxGeometry x="150" y="210" width="10" height="300" as="geometry" />
        </mxCell>
        <mxCell id="ibpT-h3zPALlDqyW-gSG-7" value="" style="html=1;points=[[0,0,0,0,5],[0,1,0,0,-5],[1,0,0,0,5],[1,1,0,0,-5]];perimeter=orthogonalPerimeter;outlineConnect=0;targetShapes=umlLifeline;portConstraint=eastwest;newEdgeStyle={&quot;curved&quot;:0,&quot;rounded&quot;:0};" vertex="1" parent="1">
          <mxGeometry x="330" y="210" width="10" height="290" as="geometry" />
        </mxCell>
        <mxCell id="ibpT-h3zPALlDqyW-gSG-8" value="" style="endArrow=classic;html=1;rounded=0;" edge="1" parent="1">
          <mxGeometry width="50" height="50" relative="1" as="geometry">
            <mxPoint x="160" y="230" as="sourcePoint" />
            <mxPoint x="330" y="230" as="targetPoint" />
          </mxGeometry>
        </mxCell>
        <mxCell id="ibpT-h3zPALlDqyW-gSG-9" value="1.Запрос на просмотр&lt;div&gt;&amp;nbsp;сотрудников&lt;/div&gt;" style="text;html=1;align=center;verticalAlign=middle;resizable=0;points=[];autosize=1;strokeColor=none;fillColor=none;" vertex="1" parent="1">
          <mxGeometry x="165" y="195" width="150" height="40" as="geometry" />
        </mxCell>
        <mxCell id="ibpT-h3zPALlDqyW-gSG-10" value="2.Проверка&amp;nbsp;&lt;div&gt;прав доступа&lt;/div&gt;" style="html=1;align=left;spacingLeft=2;endArrow=block;rounded=0;edgeStyle=orthogonalEdgeStyle;curved=0;rounded=0;" edge="1" parent="1">
          <mxGeometry x="-0.0046" relative="1" as="geometry">
            <mxPoint x="340" y="230" as="sourcePoint" />
            <Array as="points">
              <mxPoint x="400" y="230" />
              <mxPoint x="400" y="260" />
            </Array>
            <mxPoint x="340" y="260" as="targetPoint" />
            <mxPoint as="offset" />
          </mxGeometry>
        </mxCell>
        <mxCell id="ibpT-h3zPALlDqyW-gSG-11" value="Серверная часть системы" style="html=1;whiteSpace=wrap;" vertex="1" parent="1">
          <mxGeometry x="510" y="90" width="110" height="50" as="geometry" />
        </mxCell>
        <mxCell id="ibpT-h3zPALlDqyW-gSG-12" value="" style="endArrow=none;dashed=1;html=1;rounded=0;entryX=0.5;entryY=1;entryDx=0;entryDy=0;" edge="1" parent="1" target="ibpT-h3zPALlDqyW-gSG-11">
          <mxGeometry width="50" height="50" relative="1" as="geometry">
            <mxPoint x="565" y="510" as="sourcePoint" />
            <mxPoint x="345" y="150" as="targetPoint" />
            <Array as="points" />
          </mxGeometry>
        </mxCell>
        <mxCell id="ibpT-h3zPALlDqyW-gSG-13" value="" style="html=1;points=[[0,0,0,0,5],[0,1,0,0,-5],[1,0,0,0,5],[1,1,0,0,-5]];perimeter=orthogonalPerimeter;outlineConnect=0;targetShapes=umlLifeline;portConstraint=eastwest;newEdgeStyle={&quot;curved&quot;:0,&quot;rounded&quot;:0};" vertex="1" parent="1">
          <mxGeometry x="560" y="270" width="10" height="230" as="geometry" />
        </mxCell>
        <mxCell id="ibpT-h3zPALlDqyW-gSG-14" value="" style="endArrow=classic;html=1;rounded=0;" edge="1" parent="1">
          <mxGeometry width="50" height="50" relative="1" as="geometry">
            <mxPoint x="340" y="320" as="sourcePoint" />
            <mxPoint x="560" y="320" as="targetPoint" />
          </mxGeometry>
        </mxCell>
        <mxCell id="ibpT-h3zPALlDqyW-gSG-15" value="3.Отправка GET-запроса на просмотр&amp;nbsp;" style="edgeLabel;html=1;align=center;verticalAlign=middle;resizable=0;points=[];" vertex="1" connectable="0" parent="ibpT-h3zPALlDqyW-gSG-14">
          <mxGeometry x="0.1312" y="1" relative="1" as="geometry">
            <mxPoint x="-15" y="-9" as="offset" />
          </mxGeometry>
        </mxCell>
        <mxCell id="ibpT-h3zPALlDqyW-gSG-16" value="5. Подбор данных" style="html=1;align=left;spacingLeft=2;endArrow=block;rounded=0;edgeStyle=orthogonalEdgeStyle;curved=0;rounded=0;" edge="1" parent="1">
          <mxGeometry x="-0.0046" relative="1" as="geometry">
            <mxPoint x="770" y="420" as="sourcePoint" />
            <Array as="points">
              <mxPoint x="810" y="420" />
              <mxPoint x="810" y="450" />
            </Array>
            <mxPoint x="770" y="450" as="targetPoint" />
            <mxPoint as="offset" />
          </mxGeometry>
        </mxCell>
        <mxCell id="ibpT-h3zPALlDqyW-gSG-17" value="База данных" style="html=1;whiteSpace=wrap;" vertex="1" parent="1">
          <mxGeometry x="710" y="90" width="110" height="50" as="geometry" />
        </mxCell>
        <mxCell id="ibpT-h3zPALlDqyW-gSG-18" value="" style="endArrow=none;dashed=1;html=1;rounded=0;entryX=0.5;entryY=1;entryDx=0;entryDy=0;" edge="1" parent="1" source="ibpT-h3zPALlDqyW-gSG-23">
          <mxGeometry width="50" height="50" relative="1" as="geometry">
            <mxPoint x="765" y="510" as="sourcePoint" />
            <mxPoint x="764.66" y="140" as="targetPoint" />
            <Array as="points" />
          </mxGeometry>
        </mxCell>
        <mxCell id="ibpT-h3zPALlDqyW-gSG-19" value="" style="endArrow=classic;html=1;rounded=0;" edge="1" parent="1">
          <mxGeometry width="50" height="50" relative="1" as="geometry">
            <mxPoint x="569.9999999999998" y="370.0000000000001" as="sourcePoint" />
            <mxPoint x="759.9999999999998" y="370.0000000000001" as="targetPoint" />
          </mxGeometry>
        </mxCell>
        <mxCell id="ibpT-h3zPALlDqyW-gSG-20" value="4.Отправка запроса на просмотр" style="edgeLabel;html=1;align=center;verticalAlign=middle;resizable=0;points=[];" vertex="1" connectable="0" parent="ibpT-h3zPALlDqyW-gSG-19">
          <mxGeometry x="0.1938" relative="1" as="geometry">
            <mxPoint x="-23" y="-15" as="offset" />
          </mxGeometry>
        </mxCell>
        <mxCell id="ibpT-h3zPALlDqyW-gSG-21" value="5.1 Извлечение данных&amp;nbsp;&lt;div&gt;о сотрудниках&lt;/div&gt;" style="html=1;verticalAlign=bottom;endArrow=open;dashed=1;endSize=8;curved=0;rounded=0;" edge="1" parent="1">
          <mxGeometry relative="1" as="geometry">
            <mxPoint x="759.9999999999998" y="460.0000000000001" as="sourcePoint" />
            <mxPoint x="569.9999999999998" y="460.0000000000001" as="targetPoint" />
            <Array as="points">
              <mxPoint x="710" y="460" />
            </Array>
          </mxGeometry>
        </mxCell>
        <mxCell id="ibpT-h3zPALlDqyW-gSG-22" value="" style="endArrow=none;dashed=1;html=1;rounded=0;entryX=0.5;entryY=1;entryDx=0;entryDy=0;" edge="1" parent="1" target="ibpT-h3zPALlDqyW-gSG-23">
          <mxGeometry width="50" height="50" relative="1" as="geometry">
            <mxPoint x="765" y="510" as="sourcePoint" />
            <mxPoint x="764.66" y="140" as="targetPoint" />
            <Array as="points" />
          </mxGeometry>
        </mxCell>
        <mxCell id="ibpT-h3zPALlDqyW-gSG-23" value="" style="html=1;points=[[0,0,0,0,5],[0,1,0,0,-5],[1,0,0,0,5],[1,1,0,0,-5]];perimeter=orthogonalPerimeter;outlineConnect=0;targetShapes=umlLifeline;portConstraint=eastwest;newEdgeStyle={&quot;curved&quot;:0,&quot;rounded&quot;:0};" vertex="1" parent="1">
          <mxGeometry x="760" y="350" width="10" height="140" as="geometry" />
        </mxCell>
        <mxCell id="ibpT-h3zPALlDqyW-gSG-25" value="5.2 Отправка списка сотрудников" style="html=1;verticalAlign=bottom;endArrow=open;dashed=1;endSize=8;curved=0;rounded=0;" edge="1" parent="1">
          <mxGeometry relative="1" as="geometry">
            <mxPoint x="560" y="480" as="sourcePoint" />
            <mxPoint x="340" y="480.0000000000001" as="targetPoint" />
          </mxGeometry>
        </mxCell>
        <mxCell id="ibpT-h3zPALlDqyW-gSG-26" value="5.3.Отображение&lt;div&gt;списка сотрудников&lt;/div&gt;" style="html=1;verticalAlign=bottom;endArrow=open;dashed=1;endSize=8;curved=0;rounded=0;" edge="1" parent="1">
          <mxGeometry x="-0.0588" y="-10" relative="1" as="geometry">
            <mxPoint x="330" y="490" as="sourcePoint" />
            <mxPoint x="160" y="490" as="targetPoint" />
            <mxPoint as="offset" />
          </mxGeometry>
        </mxCell>
      </root>
    </mxGraphModel>
  </diagram>
</mxfile>
